<?xml version="1.0" encoding="UTF-8"?> <!-- Generator: Adobe Illustrator 23.0.2, SVG Export Plug-In . SVG Version: 6.00 Build 0) --> <svg xmlns="http://www.w3.org/2000/svg" xmlns:xlink="http://www.w3.org/1999/xlink" id="Layer_1" x="0px" y="0px" viewBox="0 0 400 245" style="enable-background:new 0 0 400 245;" xml:space="preserve"> <style type="text/css"> .st0{fill-rule:evenodd;clip-rule:evenodd;fill:#EC1C24;} .st1{fill-rule:evenodd;clip-rule:evenodd;fill:#231F20;} .st2{fill:#434343;} .st3{fill:#898989;} .st4{fill:url(#SVGID_1_);} .st5{fill:url(#SVGID_2_);} .st6{fill:#B36E01;} .st7{fill:url(#SVGID_3_);} .st8{fill:url(#SVGID_4_);} .st9{fill:url(#SVGID_5_);} .st10{fill:#FAF8D5;} .st11{fill:#313130;} .st12{fill:#86C440;stroke:#58B847;stroke-width:1.5531;stroke-miterlimit:10;} .st13{fill:#D1DD26;} .st14{fill:#352E29;} .st15{fill:#86C440;stroke:#58B847;stroke-width:0.6761;} .st16{fill:#231916;} .st17{fill:#E50013;} .st18{fill:#3E608B;} .st19{fill:#6E9C3A;} .st20{fill:#3693C3;} .st21{fill:#0B8B5D;} .st22{fill:#E1903D;} .st23{fill:#58749B;} .st24{fill:#0066A4;} .st25{fill:#402210;} .st26{clip-path:url(#SVGID_7_);fill:url(#SVGID_8_);} .st27{fill:#FFFFFF;} .st28{fill:#6A2811;} .st29{fill:#1EBAD6;} .st30{fill:#161629;} .st31{fill:#C0C0C8;} .st32{opacity:0.9;} .st33{fill-rule:evenodd;clip-rule:evenodd;fill:#295C82;} .st34{fill-rule:evenodd;clip-rule:evenodd;fill:#193A53;} .st35{fill-rule:evenodd;clip-rule:evenodd;fill:url(#SVGID_9_);} .st36{fill-rule:evenodd;clip-rule:evenodd;fill:url(#SVGID_10_);} .st37{fill-rule:evenodd;clip-rule:evenodd;fill:url(#SVGID_11_);} .st38{fill-rule:evenodd;clip-rule:evenodd;fill:url(#SVGID_12_);} .st39{fill-rule:evenodd;clip-rule:evenodd;fill:url(#SVGID_13_);} .st40{fill:#EC1C24;} .st41{fill:#231F20;} .st42{fill-rule:evenodd;clip-rule:evenodd;fill:#ED1C24;} .st43{fill-rule:evenodd;clip-rule:evenodd;fill:#C3C1C4;} .st44{fill:#ED1C24;} .st45{fill:#E11F26;} .st46{fill:#CECDCF;} .st47{fill:#19171B;} .st48{fill:#E49C23;} .st49{fill:#3E3A39;} .st50{enable-background:new ;} .st51{fill:#EB6224;} .st52{fill:#4D4E4E;} .st53{fill:#217CB9;} .st54{fill:#58595B;} .st55{fill:#B38634;} .st56{fill:#A7A9AC;} .st57{fill:#A89A75;} .st58{fill:#2ED8CB;} .st59{fill:none;} .st60{fill:#65B1B8;} .st61{fill:#61D8D3;} .st62{fill:#79E0FA;} .st63{fill:#666766;} .st64{fill:url(#SVGID_14_);} .st65{fill:url(#SVGID_15_);} .st66{fill:url(#SVGID_16_);} .st67{fill:url(#SVGID_17_);} .st68{fill:url(#SVGID_18_);} .st69{fill:url(#SVGID_19_);} .st70{fill:url(#SVGID_20_);} .st71{fill:url(#SVGID_21_);} .st72{fill:url(#SVGID_22_);} .st73{fill:url(#SVGID_23_);} .st74{fill:url(#SVGID_24_);} .st75{fill:url(#SVGID_25_);} .st76{fill:url(#SVGID_26_);} .st77{fill:url(#SVGID_27_);} .st78{opacity:0.79;fill:#A3A5A8;enable-background:new ;} .st79{fill:#86888B;} .st80{fill:#D2232A;} .st81{fill:#00478A;} .st82{fill:#009FE8;} .st83{fill:#005BAB;} .st84{fill-rule:evenodd;clip-rule:evenodd;fill:none;} .st85{fill-rule:evenodd;clip-rule:evenodd;} .st86{fill:#FF9900;} .st87{fill:#666666;} </style> <g> <g> <g> <path class="st2" d="M143.42,81.7c-7.17-1.31-15.13,0.5-21.89,2.91c-4.11,1.46-23.36,13.28-20.64,16.01 c2.93,2.93,6-1.83,8.96-1.79c-3.87,12.72-7.06,28.04-11.21,37.65v1.79c1.44,3.96,9.73,3.38,13.45,3.59 c5.75-6.05,4.46-19.14,8.52-26.9c10.59-3.75,18.85,8.5,13.63,17.43c-6.18,10.61-18.43,17.07-30.67,15.74 c4.26,9.06,29.01-0.22,35.24-3.1c12.44-5.77,20.08-17.86,10.93-29.17c-1.81-2.24-4.2-3.87-7.17-4.93 C151.84,103.18,162.8,85.21,143.42,81.7z M122.4,109.14c0.43-9.3,6.56-26.22,17.93-17.48 C142.22,105.33,130.1,105.03,122.4,109.14z M198.03,137.86c0.14-4.23-1.56-8.29-1.97-12.46c-0.61-6.37,2.22-18.41-5.39-21.5 c-0.01,0.05-4.64,1.73-6.98,2.77c-3.79-1.81-10.53,0.77-14.24,1.87c-9.94,2.96-17.38,16.02-13.85,25.2 c4.06,10.59,18.44,5.71,26.22,3.28c0.97,2.78,2.34,5.14,4.87,6.37C191.18,142.47,197.79,144.8,198.03,137.86z M181.44,126.9 c-18.08,8.98-9.32-17.69,0.38-14.62C182.7,115.11,180.55,122.74,181.44,126.9z M236.44,103.44c-7.99,4.5-10.62,14.35-16.11,21.36 c-2.16-7.48-8.25-14.73-10.6-19.49c-2.26-0.61-5.79-0.14-8.08,1.35c-0.77,10.31,2.47,23.58,6.31,33.51 c-6.19,7.06-14.2,12.29-22.11,17.61c15.63,8.45,33.53-10.43,41.37-21.16C231.2,131.21,252.72,106.49,236.44,103.44z"></path> </g> </g> <g> <g> <path class="st3" d="M265.58,139.56c-5.39-3.8-7.64-6.3-7.37-13.45c0.6-15.22,8.43-31.41,9.08-46.59 c-1.68-2.73-11.31,0.9-12.91,1.05c-4.31,13.89-7.3,28.38-10.33,42.59c-3.04,14.25-2.84,27.16,15.94,25.39 C264.13,148.16,271.3,143.6,265.58,139.56z M278.9,101.53c-8.45,2.19-9.45,20.11-9.96,26.83c-0.47,6.18,1.42,20.49,7.08,8.26 C277.76,132.86,295.81,97.04,278.9,101.53z M322.35,113.74c-3.81-5.29-10.51-4.56-15.52-7.92c1.3-8.09,5.62-16.98,1.87-23.99 c-2.03-0.81-4.01-0.97-5.25,0.38c-7.11,7.77-17.41,43.88-18.36,51.35c11.96,8.17,28.17,9.84,37.52-3.36 C326.38,124.9,326.12,118.98,322.35,113.74z M309.07,129.43c-2.64,0.76-5.39,1.39-8.62,0.38c0.5-6.75,2.61-11.89,4.5-17.24 C311.88,114.19,313.73,124.23,309.07,129.43z M342.66,105.03c-0.99-3.18-2.76-5.98-6.93-4.98c-5.36,7.18-6.75,21.38-9.64,30.28 c-3.32,10.24,3.95,15.45,12.67,7.09c0-5.05,3.01-24.33,8.24-23.67c11,1.38,2.51,8.41,6.63,10c4.71,1.82,8.87-1.97,9.81-6.35 C366.39,103.65,352.39,101.88,342.66,105.03z M378.17,129.73c8.1-2.65,27.87-12.34,16.96-24.17 c-10.55-11.44-28.04,4.5-31.74,14.52c-8.65,23.36,32.65,27.68,35.48,8.84C393.53,130.81,383.95,134.95,378.17,129.73z M375.73,123.65c0.42-5.59,3.94-13.3,9.93-11.98c0.12,1.99,0,5.01-3.04,9.14C380.8,123.3,379.11,123.78,375.73,123.65z M286.05,97.18c4.13,0,7.49-3.35,7.49-7.49c0-4.13-3.35-7.49-7.49-7.49c-4.14,0-7.49,3.35-7.49,7.49 C278.56,93.83,281.92,97.18,286.05,97.18z"></path> </g> </g> <g> <linearGradient id="SVGID_1_" gradientUnits="userSpaceOnUse" x1="42.5105" y1="69.3232" x2="72.6068" y2="152.0121"> <stop offset="0.2088" style="stop-color:#194CDA"></stop> <stop offset="1" style="stop-color:#3486F8"></stop> </linearGradient> <path class="st4" d="M83.96,56.14c0,0-73.27,12.19-68.6,61.36c3.96,41.64,55.41,40.54,69.92,28.49 c8.03-6.67,15.83-36.16-19.79-40.54C29.88,101.07,43.07,63.81,83.96,56.14z"></path> <linearGradient id="SVGID_2_" gradientUnits="userSpaceOnUse" x1="3.3772" y1="111.4613" x2="115.9151" y2="152.4217"> <stop offset="0" style="stop-color:#B68600"></stop> <stop offset="0.4343" style="stop-color:#C98F00"></stop> <stop offset="0.9121" style="stop-color:#E39C00"></stop> <stop offset="1" style="stop-color:#B68600"></stop> </linearGradient> <path class="st5" d="M41.34,66.82c0,0-56.33,40.86-22.29,77.38c0,0,16.71,21.67,56.95,15.47c40.24-6.19,35.9,2.48,33.43,10.52 c-2.48,8.05-28.48,29.1-71.19,12.38C-4.47,165.87-18.7,102.1,41.34,66.82z"></path> <path class="st6" d="M1.7,120.25c-1.35,9.92-0.12,19.69,3.22,28.57C6.21,139.25,5.15,129.41,1.7,120.25z"></path> <linearGradient id="SVGID_3_" gradientUnits="userSpaceOnUse" x1="18.3238" y1="90.4125" x2="66.1384" y2="147.3956"> <stop offset="0.2637" style="stop-color:#2588EB"></stop> <stop offset="0.7308" style="stop-color:#39B1FC"></stop> </linearGradient> <path class="st7" d="M31.76,79.13c-10.53,9.15-17.99,21.61-16.4,38.37c1.82,19.16,13.7,29.25,27.4,33.41 c11.88,0.21,23.09-3.1,28.59-7.9c7.73-6.75,14.56-35.76-20.77-38.95C31.45,102.33,26.2,90.76,31.76,79.13z"></path> <linearGradient id="SVGID_4_" gradientUnits="userSpaceOnUse" x1="41.3427" y1="106.1773" x2="1.7758" y2="106.1773"> <stop offset="0.3571" style="stop-color:#CD9800"></stop> <stop offset="1" style="stop-color:#FFBE0A"></stop> </linearGradient> <path class="st8" d="M20.25,145.54c-0.8-0.83-1.19-1.34-1.19-1.34c-34.05-36.52,22.29-77.38,22.29-77.38 C16.66,81.33,4.54,100.64,1.78,119.52C4.05,132.51,11.22,140.77,20.25,145.54z"></path> <linearGradient id="SVGID_5_" gradientUnits="userSpaceOnUse" x1="2.1515" y1="161.9856" x2="97.3771" y2="161.9856"> <stop offset="0" style="stop-color:#CD9800"></stop> <stop offset="0.1035" style="stop-color:#D7A002"></stop> <stop offset="0.3728" style="stop-color:#EDB106"></stop> <stop offset="0.632" style="stop-color:#FBBB09"></stop> <stop offset="0.8681" style="stop-color:#FFBE0A"></stop> </linearGradient> <path class="st9" d="M97.01,157.58c-5.08,0.06-11.89,0.69-21,2.09c-14.43,2.22-25.81,0.85-34.51-1.81 c-24.54-1.61-35.49-14.75-35.49-14.75c-1.44-1.43-2.71-2.88-3.86-4.34c3.64,19.49,17.03,36.33,36.1,43.8 c1.56,0.61,3.08,1.15,4.6,1.66c32.48,5.07,51.35-11.67,53.25-18.5C96.9,162.84,97.94,159.85,97.01,157.58z"></path> </g> </g> </svg> 