<?xml version="1.0" encoding="UTF-8"?> <!-- Generator: Adobe Illustrator 23.1.0, SVG Export Plug-In . SVG Version: 6.00 Build 0) --> <svg xmlns="http://www.w3.org/2000/svg" xmlns:xlink="http://www.w3.org/1999/xlink" id="Layer_1" x="0px" y="0px" viewBox="0 0 400 245" style="enable-background:new 0 0 400 245;" xml:space="preserve"> <style type="text/css"> .st0{fill-rule:evenodd;clip-rule:evenodd;fill:#F68B20;} .st1{fill-rule:evenodd;clip-rule:evenodd;fill:#18345B;} .st2{clip-path:url(#SVGID_2_);} .st3{clip-path:url(#SVGID_4_);} .st4{clip-path:url(#SVGID_6_);} .st5{fill:#18345B;} .st6{fill:#F68B20;} </style> <g> <path class="st0" d="M194.5,47.3c-2.8,5.1-3.7,11.2-3.2,18.1c-6.4-7.7-12.2-15.7-15.3-25.3c6.4-8.9,18.9-17.3,27.8-23.6 c-6.5,19.8,1.3,30.9,11.5,40.4c3.3,3,6.8,5.9,10.3,8.9c0.9-4.2,0.4-8.6,6.1-12.2c1.5,5.3,7.4,9.8,11.5,15 c12.2,15.4,5.1,34.4-2.2,46.1l-0.4-0.1c-1.3-0.9-2.7-1.8-4.1-2.6l2.1-8.9l-1.9-0.8C221.1,89.9,202.4,65.7,194.5,47.3 M223,0 c-9,13.3-5.6,20.1-2.3,26.2c3.3,6.1,6.6,11.7-2.6,22.5c-6.6-7.7-9.1-17.1-8.1-26C211,13.9,215.6,5.5,223,0z"></path> <path class="st1" d="M227.3,129c-7.7,4.7-16.7,7.3-25.9,7.4c-5.5-0.1-10.9-1.1-16.2-2.8h0c-1.1-0.4-2.2-0.8-3.3-1.2 c-1.8-0.8-4-2-6.2-3.5l0.3-0.2c6.5-4.9,15.5-8,25.5-8s19,3.1,25.5,8L227.3,129z M164.7,120.2l0.5-0.4c10.5-7.2,22.9-11,35.6-11 c12.8,0,25.3,3.8,35.9,11.1l0.8,0.6c-2.2,2.4-4.7,4.6-7.3,6.5c-0.4-0.4-0.9-0.7-1.3-1.1c-7.1-5.4-16.8-8.7-27.6-8.7 s-20.5,3.3-27.6,8.7c-0.4,0.3-0.8,0.6-1.2,1C169.5,124.7,166.5,122.2,164.7,120.2z"></path> <path class="st1" d="M223.1,97.1l-4.9,7.8c-2-0.5-4.9-1.3-6.9-1.6l-1.5-9H192l-1.5,9c-2.2,0.3-4.3,0.7-6.4,1.3l-4.9-7.7l-16.5,6.8 l2.1,8.9c-0.8,0.5-1.6,1-2.5,1.6c-0.7,0.1-1.4,0.2-2.1,0.3c-7.3-11.4-9.3-21.5-7.6-34.6c1.2-9.4,4.3-16.2,7.2-19.7 c9.6,11.7,22.1,20.7,37.7,26.8c-0.7-5.8,0-11,2.1-15.6c12,11.9,22.6,20.2,35.6,30.7L223.1,97.1z"></path> <g> <g> <defs> <rect id="SVGID_1_" x="241.5" y="53.2" transform="matrix(0.762 -0.6476 0.6476 0.762 22.8407 169.2581)" width="0.3" height="0.6"></rect> </defs> <clipPath id="SVGID_2_"> <use xlink:href="#SVGID_1_" style="overflow:visible;"></use> </clipPath> <g class="st2"> <g> <g> <defs> <polygon id="SVGID_3_" points="241.1,53.5 241.7,54.3 242.3,53.6 241.7,52.8 "></polygon> </defs> <clipPath id="SVGID_4_"> <use xlink:href="#SVGID_3_" style="overflow:visible;"></use> </clipPath> <g class="st3"> <g> <defs> <polygon id="SVGID_5_" points="240.5,53.5 241.6,55 242.9,53.6 241.7,52.1 "></polygon> </defs> <clipPath id="SVGID_6_"> <use xlink:href="#SVGID_5_" style="overflow:visible;"></use> </clipPath> <g class="st4"> <image style="overflow:visible;enable-background:new ;" width="42" height="46" xlink:href="17A7992E.jpg" transform="matrix(5.691443e-02 0 0 5.691443e-02 240.4771 52.2449)"> </image> </g> </g> </g> </g> </g> </g> </g> </g> <path class="st5" d="M224.4,161.2h3.5v17.1h10.7v3.2h-14.2V161.2z M215.4,161.2h3.5v20.3h-3.5V161.2z M191.7,161.2h3.9l6.1,15.6 l6.1-15.6h3.9l-8.4,20.5h-3.1L191.7,161.2z M184.4,161.2h3.5v20.3h-3.5V161.2z M172.2,181.9c-1.5,0-2.9-0.3-4.1-0.8 s-2.4-1.3-3.3-2.2c-0.9-0.9-1.6-2-2.2-3.3c-0.5-1.3-0.8-2.6-0.8-4.1v-0.1c0-1.5,0.3-2.8,0.8-4.1c0.5-1.3,1.2-2.4,2.2-3.3 c0.9-1,2-1.7,3.3-2.3c1.3-0.6,2.7-0.8,4.2-0.8c0.9,0,1.8,0.1,2.5,0.2s1.5,0.4,2.1,0.7c0.6,0.3,1.2,0.6,1.8,1s1.1,0.8,1.5,1.3 l-2.3,2.6c-0.8-0.8-1.7-1.4-2.6-1.8c-0.9-0.5-1.9-0.7-3.1-0.7c-1,0-1.9,0.2-2.7,0.6c-0.8,0.4-1.5,0.9-2.1,1.5 c-0.6,0.7-1.1,1.4-1.4,2.3c-0.3,0.9-0.5,1.8-0.5,2.8v0.1c0,1,0.2,1.9,0.5,2.8c0.3,0.9,0.8,1.6,1.4,2.3c0.6,0.7,1.3,1.2,2.1,1.6 c0.8,0.4,1.7,0.6,2.7,0.6c1.2,0,2.3-0.2,3.2-0.7c0.9-0.5,1.8-1.1,2.6-1.9l2.3,2.3c-0.5,0.6-1.1,1.1-1.6,1.5 c-0.6,0.4-1.2,0.8-1.8,1.1c-0.7,0.3-1.4,0.6-2.2,0.7C174.1,181.8,173.2,181.9,172.2,181.9z"></path> <path class="st6" d="M322.2,192.8h15v3.2h-11.5v5.2h10.2v3.2h-10.2v5.4h11.6v3.2h-15.2L322.2,192.8L322.2,192.8z M301.2,192.8h9.1 c1.3,0,2.4,0.2,3.4,0.5s1.8,0.9,2.5,1.5c0.5,0.6,1,1.2,1.2,1.9c0.3,0.7,0.4,1.5,0.4,2.4v0.1c0,0.8-0.1,1.6-0.4,2.2 c-0.2,0.7-0.6,1.3-1,1.8c-0.4,0.5-0.9,0.9-1.5,1.3c-0.6,0.4-1.2,0.6-2,0.8l5.5,7.7h-4.2l-5-7.1h-0.1h-4.4v7.1h-3.5V192.8 L301.2,192.8z M310,202.9c1.3,0,2.3-0.3,3.1-0.9c0.8-0.6,1.1-1.4,1.1-2.5v-0.1c0-1.1-0.4-2-1.1-2.5c-0.7-0.6-1.8-0.9-3.1-0.9h-5.2 v6.9L310,202.9L310,202.9z M287.6,213.4c-1.3,0-2.5-0.2-3.6-0.6c-1.1-0.4-2-0.9-2.7-1.7c-0.8-0.8-1.3-1.7-1.7-2.8 c-0.4-1.1-0.6-2.4-0.6-3.9v-11.7h3.5v11.6c0,1.9,0.5,3.3,1.4,4.3c0.9,1,2.2,1.5,3.8,1.5c1.6,0,2.8-0.5,3.8-1.4 c0.9-0.9,1.4-2.4,1.4-4.2v-11.7h3.5v11.5c0,1.5-0.2,2.8-0.6,4c-0.4,1.1-1,2.1-1.8,2.9c-0.8,0.8-1.7,1.3-2.7,1.7 C290.1,213.2,288.9,213.4,287.6,213.4z M265.4,196.1H259v-3.3h16.5v3.3H269v17h-3.6V196.1L265.4,196.1z M248.5,213.4 c-1.5,0-2.9-0.3-4.1-0.8c-1.3-0.5-2.4-1.3-3.3-2.2c-0.9-0.9-1.6-2-2.2-3.3c-0.5-1.3-0.8-2.6-0.8-4.1v-0.1c0-1.5,0.3-2.8,0.8-4.1 c0.5-1.3,1.2-2.4,2.2-3.3c0.9-1,2-1.7,3.3-2.3c1.3-0.6,2.7-0.8,4.2-0.8c0.9,0,1.8,0.1,2.5,0.2c0.8,0.2,1.5,0.4,2.1,0.7 c0.6,0.3,1.2,0.6,1.8,1c0.5,0.4,1.1,0.8,1.5,1.3l-2.3,2.6c-0.8-0.8-1.7-1.4-2.6-1.8c-0.9-0.5-1.9-0.7-3.1-0.7c-1,0-1.9,0.2-2.7,0.6 c-0.8,0.4-1.5,0.9-2.1,1.5c-0.6,0.7-1.1,1.4-1.4,2.3c-0.3,0.9-0.5,1.8-0.5,2.8v0.1c0,1,0.2,1.9,0.5,2.8c0.3,0.9,0.8,1.7,1.4,2.3 c0.6,0.7,1.3,1.2,2.1,1.6c0.8,0.4,1.7,0.6,2.7,0.6c1.2,0,2.3-0.2,3.2-0.7c0.9-0.5,1.8-1.1,2.6-1.9l2.3,2.3 c-0.5,0.6-1.1,1.1-1.6,1.5c-0.6,0.4-1.2,0.8-1.8,1.1s-1.4,0.6-2.2,0.7C250.3,213.4,249.4,213.4,248.5,213.4z M225.4,213.4 c-1.3,0-2.5-0.2-3.6-0.6c-1.1-0.4-2-0.9-2.7-1.7c-0.8-0.8-1.3-1.7-1.7-2.8s-0.6-2.4-0.6-3.9v-11.7h3.5v11.6c0,1.9,0.5,3.3,1.4,4.3 c0.9,1,2.2,1.5,3.8,1.5c1.6,0,2.8-0.5,3.8-1.4c0.9-0.9,1.4-2.4,1.4-4.2v-11.7h3.5v11.5c0,1.5-0.2,2.8-0.6,4c-0.4,1.1-1,2.1-1.8,2.9 c-0.8,0.8-1.7,1.3-2.7,1.7C227.9,213.2,226.7,213.4,225.4,213.4z M196,192.8h9.1c1.3,0,2.4,0.2,3.4,0.5c1,0.4,1.8,0.9,2.5,1.5 c0.5,0.6,1,1.2,1.2,1.9c0.3,0.7,0.4,1.5,0.4,2.4v0.1c0,0.8-0.1,1.6-0.4,2.2c-0.2,0.7-0.6,1.3-1,1.8c-0.4,0.5-0.9,0.9-1.5,1.3 c-0.6,0.4-1.2,0.6-2,0.8l5.5,7.7h-4.2l-5-7.1H204h-4.4v7.1H196L196,192.8L196,192.8z M204.8,202.9c1.3,0,2.3-0.3,3.1-0.9 c0.8-0.6,1.1-1.4,1.1-2.5v-0.1c0-1.1-0.4-2-1.1-2.5c-0.7-0.6-1.8-0.9-3.1-0.9h-5.2v6.9L204.8,202.9L204.8,202.9z M182.2,196.1h-6.4 v-3.3h16.5v3.3h-6.4v17h-3.6L182.2,196.1L182.2,196.1z M165.8,213.4c-1.6,0-3.1-0.3-4.5-0.8c-1.4-0.5-2.8-1.4-4-2.5l2.1-2.6 c1,0.8,2,1.5,3,2c1,0.5,2.1,0.7,3.4,0.7c1.1,0,2-0.2,2.6-0.7s1-1.1,1-1.9v-0.1c0-0.4-0.1-0.7-0.2-1c-0.1-0.3-0.4-0.5-0.7-0.8 c-0.3-0.3-0.8-0.5-1.4-0.7c-0.6-0.2-1.4-0.4-2.3-0.6c-1.1-0.3-2.1-0.5-2.9-0.9c-0.8-0.3-1.6-0.7-2.1-1.2c-0.6-0.5-1-1-1.3-1.7 c-0.3-0.7-0.5-1.5-0.5-2.4v-0.1c0-0.9,0.2-1.7,0.5-2.4c0.3-0.7,0.8-1.3,1.4-1.9c0.6-0.5,1.3-0.9,2.2-1.2c0.8-0.3,1.8-0.4,2.8-0.4 c1.5,0,2.8,0.2,4,0.7c1.2,0.4,2.3,1.1,3.4,1.9l-1.9,2.7c-0.9-0.7-1.8-1.2-2.8-1.6c-0.9-0.4-1.8-0.5-2.8-0.5c-1,0-1.9,0.2-2.4,0.7 c-0.6,0.5-0.9,1-0.9,1.7v0.1c0,0.4,0.1,0.7,0.2,1c0.1,0.3,0.4,0.6,0.7,0.8c0.4,0.2,0.9,0.5,1.5,0.7c0.6,0.2,1.4,0.4,2.4,0.7 c1.1,0.3,2,0.6,2.8,0.9c0.8,0.3,1.5,0.7,2.1,1.2c0.5,0.5,1,1,1.2,1.7c0.3,0.6,0.4,1.4,0.4,2.2v0.1c0,0.9-0.2,1.8-0.5,2.6 c-0.4,0.8-0.9,1.4-1.5,1.9c-0.6,0.5-1.4,0.9-2.3,1.2C167.8,213.3,166.9,213.4,165.8,213.4z M142.9,192.6h3.3l8.9,20.5h-3.8 l-2.1-4.9h-9.6l-2.1,4.9H134L142.9,192.6z M148,205l-3.5-8.1L141,205H148z M114.7,192.8h9.1c1.3,0,2.4,0.2,3.4,0.5 c1,0.4,1.8,0.9,2.5,1.5c0.5,0.6,1,1.2,1.2,1.9c0.3,0.7,0.4,1.5,0.4,2.4v0.1c0,0.8-0.1,1.6-0.4,2.2c-0.2,0.7-0.6,1.3-1,1.8 c-0.4,0.5-0.9,0.9-1.5,1.3c-0.6,0.4-1.2,0.6-2,0.8l5.5,7.7h-4.2l-5-7.1h-0.1h-4.4v7.1h-3.5L114.7,192.8L114.7,192.8z M123.5,202.9 c1.3,0,2.3-0.3,3.1-0.9c0.8-0.6,1.1-1.4,1.1-2.5v-0.1c0-1.1-0.4-2-1.1-2.5c-0.7-0.6-1.8-0.9-3.1-0.9h-5.2v6.9L123.5,202.9 L123.5,202.9z M95.7,192.8h15.1v3.2H99.2v5.6h10.2v3.2H99.2v8.3h-3.5L95.7,192.8L95.7,192.8z M72.8,192.8h3.3l10.9,14v-14h3.5v20.3 h-3l-11.2-14.5v14.5h-3.5V192.8z M63.8,192.8h3.5v20.3h-3.5V192.8z"></path> <path class="st5" d="M262,224.3h3.8l6.2,9.6l6.2-9.6h3.8v20.3h-3.5v-14.6l-6.4,9.6h-0.1l-6.4-9.5v14.5H262L262,224.3L262,224.3z M241.1,224.3h9.1c1.3,0,2.4,0.2,3.4,0.5c1,0.4,1.8,0.9,2.5,1.5c0.5,0.6,1,1.2,1.2,1.9c0.3,0.7,0.4,1.5,0.4,2.4v0.1 c0,0.8-0.1,1.6-0.4,2.2c-0.2,0.7-0.6,1.3-1,1.8c-0.4,0.5-0.9,0.9-1.5,1.3c-0.6,0.4-1.2,0.6-2,0.8l5.5,7.7h-4.2l-5-7.1H249h-4.4v7.1 h-3.5L241.1,224.3L241.1,224.3z M249.8,234.4c1.3,0,2.3-0.3,3.1-0.9c0.8-0.6,1.1-1.4,1.1-2.5v-0.1c0-1.1-0.4-2-1.1-2.5 c-0.7-0.6-1.8-0.9-3.1-0.9h-5.2v6.9L249.8,234.4L249.8,234.4z M226.1,245c-1.6,0-3-0.3-4.3-0.8c-1.3-0.6-2.4-1.3-3.3-2.2 c-0.9-0.9-1.7-2.1-2.2-3.3c-0.5-1.3-0.8-2.6-0.8-4v-0.1c0-1.4,0.3-2.8,0.8-4.1c0.5-1.3,1.3-2.4,2.2-3.3c0.9-1,2.1-1.7,3.4-2.3 c1.3-0.6,2.7-0.8,4.3-0.8c1.6,0,3,0.3,4.3,0.8c1.3,0.6,2.4,1.3,3.3,2.2c0.9,0.9,1.7,2.1,2.2,3.3s0.8,2.6,0.8,4.1v0.1 c0,1.4-0.3,2.8-0.8,4.1c-0.5,1.3-1.3,2.4-2.2,3.3c-0.9,1-2.1,1.7-3.4,2.3C229.1,244.7,227.7,245,226.1,245z M226.1,241.7 c1,0,1.9-0.2,2.8-0.6c0.8-0.4,1.6-0.9,2.2-1.5c0.6-0.6,1.1-1.4,1.4-2.3c0.3-0.9,0.5-1.8,0.5-2.8v-0.1c0-1-0.2-1.9-0.5-2.8 c-0.3-0.9-0.8-1.6-1.4-2.3c-0.6-0.6-1.3-1.2-2.2-1.6c-0.9-0.4-1.8-0.6-2.8-0.6c-1,0-1.9,0.2-2.8,0.6c-0.8,0.4-1.6,0.9-2.2,1.5 c-0.6,0.7-1.1,1.4-1.4,2.3c-0.3,0.9-0.5,1.8-0.5,2.8v0.1c0,1,0.2,1.9,0.5,2.8c0.3,0.9,0.8,1.6,1.4,2.3c0.6,0.6,1.3,1.2,2.2,1.6 C224.2,241.5,225.1,241.7,226.1,241.7z M197.3,224.3h15.1v3.2h-11.6v5.6h10.2v3.2h-10.2v8.3h-3.5L197.3,224.3L197.3,224.3z M183.5,227.6h-6.4v-3.3h16.5v3.3h-6.4v17h-3.6L183.5,227.6L183.5,227.6z M162.8,224.2h3.3l8.9,20.5h-3.8l-2.1-4.9h-9.6l-2.1,4.9 h-3.7L162.8,224.2z M167.9,236.6l-3.5-8.1l-3.5,8.1H167.9z M137.6,224.3h3.5v17.1h10.7v3.2h-14.2L137.6,224.3L137.6,224.3z M118.3,224.3h8c1.2,0,2.2,0.2,3.2,0.5c1,0.3,1.8,0.8,2.4,1.4c0.7,0.6,1.2,1.3,1.5,2.1c0.4,0.8,0.5,1.8,0.5,2.8v0.1 c0,1.1-0.2,2.1-0.6,3c-0.4,0.9-1,1.6-1.7,2.2c-0.7,0.6-1.6,1-2.6,1.3c-1,0.3-2,0.5-3.2,0.5h-4v6.5h-3.5L118.3,224.3L118.3,224.3z M126,234.9c1.4,0,2.4-0.3,3.2-1c0.8-0.7,1.2-1.6,1.2-2.6v-0.1c0-1.2-0.4-2.1-1.2-2.7c-0.8-0.6-1.9-0.9-3.2-0.9h-4.2v7.3L126,234.9 L126,234.9z"></path> <path class="st6" d="M154.6,172h-92v-1.2h92V172z M337.2,172h-92v-1.2h92V172z"></path> <path class="st6" d="M109.4,235.2H62.6v-1.2h46.8L109.4,235.2L109.4,235.2z M337.2,235.2h-46.4v-1.2h46.4V235.2z"></path> </g> </svg> 