<?xml version="1.0" encoding="UTF-8"?> <!-- Generator: Adobe Illustrator 23.1.0, SVG Export Plug-In . SVG Version: 6.00 Build 0) --> <svg xmlns="http://www.w3.org/2000/svg" xmlns:xlink="http://www.w3.org/1999/xlink" id="Layer_1" x="0px" y="0px" viewBox="0 0 400 245" style="enable-background:new 0 0 400 245;" xml:space="preserve"> <style type="text/css"> .st0{fill:#5A54A4;} .st1{fill:#9C9D9C;} </style> <g> <g> <path class="st0" d="M203.8,113.4c-20.6,0-37.2-16.7-37.2-37.2s16.7-37.2,37.2-37.2c20.6,0,37.2,16.7,37.2,37.2 S224.4,113.4,203.8,113.4 M203.8,18.3c-32,0-57.9,25.9-57.9,57.9c0,32,25.9,57.9,57.9,57.9c32,0,57.9-25.9,57.9-57.9 C261.7,44.2,235.8,18.3,203.8,18.3"></path> </g> <polygon class="st0" points="112.4,46.5 97.7,61.1 114.1,76.5 97.9,91.8 112.5,106.4 142.4,76.5 "></polygon> <path class="st1" d="M58.6,134.7c-14.4,0-27.5-5-38.9-14.9C7,108.7,0.5,94,0.5,76.1c0-15.8,5.9-29.6,17.4-40.9 C29.3,24,43.3,18.3,59.3,18.3c15.9,0,29.8,5.8,41.1,17.1L85.4,50.5c-7.3-7.3-15.8-10.9-26-10.9c-10.4,0-19.1,3.5-26.5,10.8 c-7.4,7.2-11,15.6-11,25.6c0,11.6,3.9,20.6,11.9,27.6c7.5,6.5,15.6,9.7,24.9,9.7c10.6,0,19.3-3.5,26.8-10.8l14.9,15.3 C88.8,129,74.8,134.7,58.6,134.7"></path> <g> <path class="st0" d="M70.2,188.4c9.6,0,18.7,7.1,18.7,19.1c0,12.1-9.1,19.2-18.7,19.2c-9.6,0-18.7-7.1-18.7-19.2 C51.5,195.5,60.6,188.4,70.2,188.4 M70.2,220.8c6.2,0,12.3-4.4,12.3-13.3c0-8.9-6.1-13.3-12.3-13.3c-6.2,0-12.3,4.4-12.3,13.3 C57.9,216.4,64,220.8,70.2,220.8"></path> <polygon class="st0" points="104.2,225.9 104.2,189.2 110.4,189.2 110.4,220 127.3,220 127.3,225.9 "></polygon> <polygon class="st0" points="141.7,225.9 141.7,189.2 147.9,189.2 147.9,220 164.8,220 164.8,225.9 "></polygon> <path class="st0" d="M203.2,216.7h-15.5l-3.4,9.2h-6.6l14.3-36.7h7.2l14.3,36.7h-6.8L203.2,216.7z M189.8,210.9H201l-5.6-15 L189.8,210.9z"></path> <path class="st0" d="M242.2,189.2c7.1,0,11.2,4.1,11.2,9.9c0,3.9-2.3,6.8-5.4,7.9c3.9,1,6.6,4.4,6.6,8.8c0,5.9-4.6,10.2-11.4,10.2 h-13.6v-36.8H242.2z M241.4,204.7c3.6,0,5.8-2.1,5.8-5.1c0-3.1-2.2-5.1-6-5.1h-5.5v10.3H241.4z M242,220.6c3.7,0,6.2-2,6.2-5.3 c0-3.2-2.1-5.4-6-5.4h-6.5v10.7H242z"></path> <path class="st0" d="M288.6,188.4c9.6,0,18.7,7.1,18.7,19.1c0,12.1-9.1,19.2-18.7,19.2c-9.6,0-18.7-7.1-18.7-19.2 C270,195.5,279,188.4,288.6,188.4 M288.6,220.8c6.2,0,12.3-4.4,12.3-13.3c0-8.9-6.1-13.3-12.3-13.3c-6.2,0-12.3,4.4-12.3,13.3 C276.4,216.4,282.5,220.8,288.6,220.8"></path> <path class="st0" d="M389.2,216.7h-15.6l-3.4,9.2h-6.6l14.3-36.7h7.2l14.3,36.7h-6.8L389.2,216.7z M375.9,210.9h11.2l-5.6-15 L375.9,210.9z"></path> <path class="st0" d="M32.4,213c-1.9,5.2-6.6,7.8-11.4,7.8c-6.2,0-12.3-4.4-12.3-13.3c0-8.9,6.1-13.3,12.3-13.3 c4.8,0,9.5,2.6,11.4,7.8H39c-2.3-8.7-9.9-13.7-18-13.7c-9.6,0-18.7,7.1-18.7,19.1c0,12.1,9,19.2,18.7,19.2c8.1,0,15.7-5,18-13.7 H32.4z"></path> <path class="st0" d="M335.7,211.7h-5.3v14.5H324v-36.7h14.6c7.1,0,11.5,4.9,11.5,11.1c0,5.2-2.9,9.2-8,10.5l8.8,15.1h-7 L335.7,211.7z M337.8,206.2c3.8,0,6.1-2.2,6.1-5.6c0-3.4-2.5-5.7-6.3-5.7h-7.2v11.2H337.8z"></path> </g> </g> </svg> 