<?xml version="1.0" encoding="UTF-8"?> <!-- Generator: Adobe Illustrator 23.0.1, SVG Export Plug-In . SVG Version: 6.00 Build 0) --> <svg xmlns="http://www.w3.org/2000/svg" xmlns:xlink="http://www.w3.org/1999/xlink" id="Layer_1" x="0px" y="0px" viewBox="0 0 400 245" style="enable-background:new 0 0 400 245;" xml:space="preserve"> <style type="text/css"> .st0{fill:#EA4535;} .st1{fill:#F9BC15;} .st2{fill:#557EBF;} .st3{fill:#36A852;} </style> <g> <path class="st0" d="M171.4,125.9c0,18.8-14.7,32.6-32.7,32.6s-32.7-13.8-32.7-32.6c0-18.9,14.7-32.6,32.7-32.6 S171.4,107,171.4,125.9z M157.1,125.9c0-11.7-8.5-19.8-18.4-19.8s-18.4,8-18.4,19.8c0,11.6,8.5,19.8,18.4,19.8 S157.1,137.5,157.1,125.9z"></path> <path class="st1" d="M242,125.9c0,18.8-14.7,32.6-32.7,32.6s-32.7-13.8-32.7-32.6c0-18.9,14.7-32.6,32.7-32.6S242,107,242,125.9z M227.7,125.9c0-11.7-8.5-19.8-18.4-19.8s-18.4,8-18.4,19.8c0,11.6,8.5,19.8,18.4,19.8S227.7,137.5,227.7,125.9z"></path> <path class="st2" d="M309.7,95.3v58.6c0,24.1-14.2,33.9-31,33.9c-15.8,0-25.3-10.6-28.9-19.2l12.5-5.2c2.2,5.3,7.7,11.6,16.4,11.6 c10.8,0,17.4-6.6,17.4-19.1v-4.7h-0.5c-3.2,4-9.4,7.4-17.2,7.4c-16.3,0-31.3-14.2-31.3-32.5c0-18.4,14.9-32.8,31.3-32.8 c7.8,0,14,3.5,17.2,7.3h0.5v-5.3L309.7,95.3L309.7,95.3z M297.1,126c0-11.5-7.7-19.9-17.4-19.9c-9.9,0-18.2,8.4-18.2,19.9 c0,11.4,8.3,19.7,18.2,19.7C289.5,145.7,297.1,137.4,297.1,126z"></path> <path class="st3" d="M332.1,60.9v95.6h-14V60.9H332.1z"></path> <path class="st0" d="M386.6,136.7l11.1,7.4c-3.6,5.3-12.2,14.5-27.2,14.5c-18.5,0-32.4-14.3-32.4-32.6c0-19.4,14-32.6,30.8-32.6 c16.9,0,25.2,13.5,27.9,20.8l1.5,3.7l-43.6,18.1c3.3,6.5,8.5,9.9,15.8,9.9C377.8,145.7,382.9,142.1,386.6,136.7L386.6,136.7z M352.4,124.9l29.2-12.1c-1.6-4.1-6.4-6.9-12.1-6.9C362.1,105.9,352,112.3,352.4,124.9z"></path> <path class="st2" d="M53,117.4v-13.8h46.7c0.5,2.4,0.7,5.3,0.7,8.4c0,10.4-2.8,23.2-12,32.4c-8.9,9.3-20.3,14.2-35.3,14.2 c-27.9,0-51.4-22.7-51.4-50.7S25.1,57.2,53,57.2c15.4,0,26.5,6.1,34.7,14L78,80.9C72.1,75.4,64,71,53,71 c-20.4,0-36.3,16.4-36.3,36.8s15.9,36.8,36.3,36.8c13.2,0,20.8-5.3,25.6-10.1c3.9-3.9,6.5-9.5,7.5-17.1L53,117.4z"></path> </g> </svg> 