<?xml version="1.0" encoding="UTF-8"?> <!-- Generator: Adobe Illustrator 23.1.0, SVG Export Plug-In . SVG Version: 6.00 Build 0) --> <svg xmlns="http://www.w3.org/2000/svg" xmlns:xlink="http://www.w3.org/1999/xlink" id="Layer_1" x="0px" y="0px" viewBox="0 0 400 245" style="enable-background:new 0 0 400 245;" xml:space="preserve"> <style type="text/css"> .st0{fill:#747474;} .st1{fill:#F05225;} .st2{fill:#7FBB42;} .st3{fill:#33A0DA;} .st4{fill:#FDB813;} </style> <g> <path class="st0" d="M141.2,129l-2.4,6.8h-0.2c-0.4-1.5-1.1-3.8-2.3-6.6L123.5,97H111v51.2h8.3v-31.6c0-2,0-4.2-0.1-7 c-0.1-1.4-0.2-2.5-0.3-3.2h0.2c0.4,2,0.9,3.4,1.2,4.4l15.4,37.4h5.8l15.2-37.7c0.3-0.9,0.7-2.6,1-4h0.2c-0.2,3.8-0.3,7.2-0.4,9.2 V148h8.8V96.9h-12.1L141.2,129z M174.7,111.3h8.6V148h-8.6V111.3z M179.1,95.8c-1.5,0-2.6,0.5-3.6,1.5c-1,0.9-1.5,2.1-1.5,3.6 c0,1.4,0.5,2.6,1.5,3.5s2.2,1.4,3.6,1.4c1.5,0,2.7-0.5,3.6-1.4c1-0.9,1.5-2.1,1.5-3.5c0-1.4-0.5-2.6-1.5-3.6 C181.9,96.3,180.6,95.8,179.1,95.8 M213.9,111c-1.6-0.3-3.2-0.5-4.8-0.5c-3.9,0-7.5,0.9-10.5,2.6c-3,1.7-5.4,4.1-6.9,7.1 c-1.6,3-2.4,6.6-2.4,10.6c0,3.5,0.8,6.6,2.3,9.5c1.5,2.8,3.6,5,6.5,6.6c2.7,1.5,5.9,2.3,9.5,2.3c4.1,0,7.6-0.9,10.4-2.5l0.1-0.1 v-7.9l-0.3,0.3c-1.3,0.9-2.7,1.7-4.2,2.2c-1.5,0.5-2.9,0.8-4.1,0.8c-3.4,0-6.2-1-8.1-3.2c-2-2.1-3-5-3-8.7c0-3.8,1-6.8,3-8.9 c2.1-2.2,4.8-3.3,8.1-3.3c2.8,0,5.6,0.9,8.2,2.8l0.3,0.3v-8.4l-0.1-0.1C216.9,111.8,215.6,111.3,213.9,111 M242.3,110.7 c-2.1,0-4.1,0.7-5.8,2.1c-1.5,1.2-2.5,2.9-3.3,5h-0.1v-6.4h-8.6V148h8.6v-18.7c0-3.2,0.7-5.8,2.1-7.7c1.5-2,3.3-3,5.6-3 c0.8,0,1.6,0.2,2.6,0.3c0.9,0.3,1.6,0.5,2.1,0.9l0.3,0.3v-8.6l-0.2-0.1C244.9,110.9,243.7,110.7,242.3,110.7 M265.7,110.5 c-6,0-10.9,1.8-14.2,5.3c-3.4,3.5-5.1,8.3-5.1,14.4c0,5.7,1.7,10.3,5,13.7c3.3,3.3,7.8,5,13.4,5c5.9,0,10.6-1.8,14-5.4 c3.4-3.6,5.1-8.3,5.1-14.2c0-5.8-1.6-10.5-4.8-13.8C276,112.2,271.4,110.5,265.7,110.5 M272.6,138.7c-1.6,2.1-4.1,3-7.2,3 c-3.1,0-5.6-1-7.4-3.2c-1.8-2.1-2.6-5-2.6-8.8c0-3.9,0.9-6.9,2.6-9c1.8-2.1,4.2-3.2,7.4-3.2c3,0,5.4,1,7.2,3c1.7,2.1,2.6,5,2.6,8.9 C275,133.6,274.3,136.7,272.6,138.7 M303.2,126.5c-2.7-1.1-4.4-2-5.2-2.7c-0.7-0.7-1-1.6-1-2.8c0-1,0.4-2,1.4-2.6s2.1-1,3.8-1 c1.5,0,3,0.3,4.4,0.7c1.5,0.4,2.8,1,3.8,1.8l0.3,0.3V112l-0.2-0.1c-1-0.4-2.3-0.8-3.9-1.1c-1.6-0.3-3-0.4-4.2-0.4 c-4.1,0-7.5,1-10.1,3.2c-2.6,2.1-3.9,4.8-3.9,8.1c0,1.7,0.3,3.2,0.9,4.5c0.6,1.3,1.5,2.5,2.6,3.4c1.2,0.9,2.9,2,5.3,3 c2,0.9,3.5,1.5,4.4,2.1c0.9,0.5,1.5,1.1,2,1.6c0.3,0.5,0.5,1.2,0.5,2.1c0,2.5-1.9,3.6-5.6,3.6c-1.5,0-3-0.3-4.8-0.9 s-3.4-1.5-4.8-2.5l-0.3-0.3v8.4l0.2,0.1c1.3,0.6,2.8,1,4.6,1.5c1.9,0.3,3.5,0.6,5,0.6c4.4,0,8.1-1,10.7-3.2c2.6-2.1,4-4.8,4-8.3 c0-2.5-0.7-4.6-2.1-6.3C309,129.5,306.6,127.9,303.2,126.5 M335.8,110.5c-6,0-10.9,1.8-14.2,5.3s-5.1,8.3-5.1,14.4 c0,5.7,1.7,10.3,5,13.7c3.3,3.3,7.8,5,13.4,5c5.9,0,10.6-1.8,14-5.4c3.4-3.6,5.1-8.3,5.1-14.2c0-5.8-1.6-10.5-4.8-13.8 C346,112.2,341.4,110.5,335.8,110.5 M342.6,138.7c-1.6,2.1-4.1,3-7.2,3c-3.2,0-5.6-1-7.4-3.2c-1.8-2.1-2.6-5-2.6-8.8 c0-3.9,0.9-6.9,2.6-9c1.8-2.1,4.2-3.2,7.4-3.2c3,0,5.4,1,7.2,3c1.7,2.1,2.6,5,2.6,8.9C345.1,133.6,344.2,136.7,342.6,138.7 M400,118.4v-7.1h-8.7v-10.9l-0.3,0.1l-8.2,2.5l-0.2,0.1v8.3h-13v-4.6c0-2.1,0.5-3.8,1.5-4.8c0.9-1.1,2.3-1.6,4-1.6 c1.2,0,2.5,0.3,3.8,0.9l0.3,0.2v-7.5l-0.2-0.1c-1.2-0.4-2.8-0.7-4.8-0.7c-2.6,0-4.8,0.6-6.9,1.6c-2.1,1.1-3.6,2.6-4.7,4.7 c-1.1,2-1.7,4.2-1.7,6.8v5.1h-6v7h6V148h8.7v-29.6h13v18.9c0,7.7,3.6,11.7,10.9,11.7c1.2,0,2.5-0.2,3.6-0.4 c1.3-0.3,2.2-0.6,2.7-0.9l0.1-0.1v-7.1l-0.3,0.3c-0.5,0.3-1,0.6-1.8,0.8c-0.7,0.2-1.3,0.3-1.7,0.3c-1.7,0-2.9-0.4-3.8-1.4 c-0.8-0.9-1.2-2.5-1.2-4.7v-17.4L400,118.4L400,118.4z"></path> <path class="st1" d="M0,79.8h40.6v40.6H0V79.8z"></path> <path class="st2" d="M44.8,79.8h40.6v40.6H44.8V79.8z"></path> <path class="st3" d="M0,124.6h40.6v40.6H0V124.6z"></path> <path class="st4" d="M44.8,124.6h40.6v40.6H44.8V124.6z"></path> </g> </svg> 