<?xml version="1.0" encoding="UTF-8"?> <!-- Generator: Adobe Illustrator 23.1.0, SVG Export Plug-In . SVG Version: 6.00 Build 0) --> <svg xmlns="http://www.w3.org/2000/svg" xmlns:xlink="http://www.w3.org/1999/xlink" id="Layer_1" x="0px" y="0px" viewBox="0 0 400 245" style="enable-background:new 0 0 400 245;" xml:space="preserve"> <style type="text/css"> .st0{fill:#FFFFFF;fill-opacity:0;} .st1{fill:#EE2837;} .st2{fill:#010101;} </style> <path class="st0" d="M-0.8-0.9h400v245h-400V-0.9z"></path> <path class="st1" d="M84.6,128.7c8,0,19.6-1.7,19.6-11.2c0-0.7,0-1.5-0.2-2.2l-4.8-20.7C98.1,90,97.1,88,89.1,84 c-6.2-3.2-19.7-8.4-23.7-8.4c-3.7,0-4.8,4.8-9.2,4.8c-4.3,0-7.5-3.6-11.5-3.6c-3.9,0-6.3,2.6-8.3,8c0,0-5.4,15.2-6.1,17.4 c-0.1,0.4-0.2,0.8-0.1,1.2C30.2,109.3,53.4,128.7,84.6,128.7 M105.4,121.4c1.1,5.2,1.1,5.8,1.1,6.5c0,9-10.1,13.9-23.3,13.9 c-29.9,0-56.2-17.5-56.2-29.1c0-1.6,0.3-3.2,1-4.7c-10.8,0.6-24.7,2.5-24.7,14.8c0,20.1,47.7,45,85.5,45c29,0,36.3-13.1,36.3-23.5 C125.1,136.1,118.1,126.9,105.4,121.4"></path> <path class="st2" d="M105.4,121.4c1.1,5.2,1.1,5.8,1.1,6.5c0,9-10.1,13.9-23.3,13.9c-29.9,0-56.2-17.5-56.2-29.1 c0-1.6,0.3-3.2,1-4.7l2.3-5.8c-0.1,0.4-0.2,0.8-0.1,1.2c0,5.9,23.2,25.2,54.4,25.2c8,0,19.6-1.7,19.6-11.2c0-0.7,0-1.5-0.2-2.2 L105.4,121.4z M374,134.6c0,7.6,4.6,11.3,12.9,11.3c2.6-0.1,5.1-0.4,7.6-1.1v-8.8c-1.6,0.5-3.2,0.8-4.9,0.7c-3.4,0-4.7-1.1-4.7-4.3 V119h10v-9.1h-10V98.4l-10.9,2.4v9.2h-7.2v9.1h7.2V134.6z M340.1,134.8c0-2.4,2.4-3.5,5.9-3.5c2.2,0,4.3,0.3,6.5,0.8v4.6 c-2.1,1.1-4.4,1.7-6.8,1.7C342.2,138.4,340.1,137.1,340.1,134.8 M343.4,146.1c3.5,0.1,6.9-0.8,9.8-2.8v2.2H364v-22.8 c0-8.7-5.9-13.5-15.6-13.5c-5.8,0.1-11.4,1.4-16.6,3.9l3.9,8c4.2-1.8,7.7-2.8,10.8-2.8c4.5,0,6.8,1.8,6.8,5.3v1.8 c-2.6-0.7-5.4-1-8.1-1c-9.2,0-14.7,3.8-14.7,10.7C330.5,141.3,335.5,146.1,343.4,146.1 M284.3,145.5h11.6V127h19.4v18.4h11.6V98.4 h-11.6v18.1h-19.4V98.4h-11.6L284.3,145.5z M240.2,127.6c0-5,4-9,9-9c0.1,0,0.2,0,0.4,0c2.8-0.1,5.5,0.9,7.5,2.8v12.5 c-2,1.9-4.7,2.9-7.5,2.8c-5,0.2-9.2-3.8-9.4-8.8C240.2,127.8,240.2,127.7,240.2,127.6 M257.2,145.5H268V96l-10.9,2.4v13.4 c-8.8-5.1-20-2.2-25.1,6.6s-2.2,20,6.6,25.1c2.8,1.6,5.9,2.5,9.1,2.5c3.4,0,6.8-1.1,9.6-3.1V145.5z M207.8,118.1 c3.5,0,6.5,2.3,7.5,5.7h-14.9C201.2,120.4,204.3,118.1,207.8,118.1 M189.4,127.7c0,10.4,8.5,18.4,19.4,18.4 c5.5,0.2,10.8-1.8,14.9-5.4l-7.2-6.4c-1.9,1.8-4.5,2.8-7.1,2.7c-3.8,0.1-7.3-2.1-8.8-5.7H226v-2.7c0-11.3-7.6-19.5-18-19.5 c-10.1-0.2-18.4,7.9-18.6,18C189.4,127.4,189.4,127.6,189.4,127.7 M170.6,108.3c3.8,0,6,2.4,6,5.3s-2.2,5.3-6,5.3h-11.4v-10.6H170.6 z M147.6,145.5h11.6v-17.2h8.8l8.9,17.2h12.9l-10.4-18.8c5.4-2.2,8.9-7.4,8.9-13.3c0-8.5-6.7-15-16.6-15h-24.1L147.6,145.5z"></path> </svg> 